<?xml version="1.0" encoding="UTF-8"?>
<svg xmlns="http://www.w3.org/2000/svg" width="1424" height="785" viewBox="0 0 1424 785" role="img" aria-labelledby="title desc">
  <title id="title">Logo Yehli</title>
  <desc id="desc">Logo Yehli avec le slogan : L’éducation, une lumière pour changer des vies.</desc>
  <g id="yehli-wordmark" fill="#FFFFFF" fill-rule="evenodd">
    <path d="M 957.00 66.00 L 948.00 58.00 L 939.00 52.00 L 924.00 46.00 L 921.00 46.00 L 916.00 44.00 L 893.00 44.00 L 892.00 45.00 L 887.00 45.00 L 886.00 46.00 L 882.00 46.00 L 875.00 49.00 L 872.00 49.00 L 866.00 51.00 L 843.00 62.00 L 823.00 75.00 L 799.00 94.00 L 769.00 123.00 L 769.00 124.00 L 759.00 134.00 L 759.00 135.00 L 739.00 157.00 L 735.00 163.00 L 729.00 169.00 L 722.00 179.00 L 718.00 183.00 L 707.00 198.00 L 701.00 208.00 L 698.00 211.00 L 697.00 214.00 L 662.00 266.00 L 648.00 290.00 L 625.00 324.00 L 590.00 371.00 L 570.00 396.00 L 556.00 412.00 L 548.00 423.00 L 521.00 453.00 L 521.00 454.00 L 512.00 463.00 L 512.00 464.00 L 467.00 508.00 L 466.00 508.00 L 453.00 520.00 L 433.00 535.00 L 424.00 540.00 L 419.00 544.00 L 412.00 547.00 L 410.00 549.00 L 404.00 552.00 L 402.00 552.00 L 395.00 556.00 L 386.00 559.00 L 383.00 559.00 L 379.00 561.00 L 366.00 562.00 L 365.00 563.00 L 357.00 563.00 L 356.00 562.00 L 348.00 561.00 L 343.00 557.00 L 340.00 550.00 L 340.00 536.00 L 341.00 535.00 L 341.00 531.00 L 342.00 530.00 L 342.00 527.00 L 346.00 515.00 L 351.00 505.00 L 351.00 503.00 L 357.00 492.00 L 357.00 490.00 L 379.00 448.00 L 383.00 443.00 L 392.00 426.00 L 394.00 424.00 L 407.00 401.00 L 411.00 396.00 L 416.00 386.00 L 422.00 378.00 L 432.00 360.00 L 447.00 338.00 L 448.00 335.00 L 452.00 330.00 L 453.00 327.00 L 477.00 290.00 L 481.00 282.00 L 485.00 277.00 L 489.00 269.00 L 493.00 264.00 L 495.00 259.00 L 497.00 257.00 L 507.00 238.00 L 509.00 236.00 L 521.00 212.00 L 521.00 210.00 L 524.00 205.00 L 524.00 203.00 L 526.00 200.00 L 526.00 198.00 L 528.00 195.00 L 532.00 183.00 L 532.00 180.00 L 534.00 175.00 L 534.00 171.00 L 535.00 170.00 L 535.00 166.00 L 536.00 165.00 L 536.00 159.00 L 537.00 158.00 L 537.00 129.00 L 536.00 128.00 L 536.00 123.00 L 535.00 122.00 L 534.00 114.00 L 530.00 105.00 L 530.00 103.00 L 525.00 93.00 L 519.00 84.00 L 508.00 72.00 L 495.00 62.00 L 478.00 53.00 L 476.00 53.00 L 473.00 51.00 L 458.00 46.00 L 455.00 46.00 L 450.00 44.00 L 446.00 44.00 L 445.00 43.00 L 440.00 43.00 L 439.00 42.00 L 420.00 41.00 L 419.00 40.00 L 387.00 40.00 L 386.00 41.00 L 376.00 41.00 L 375.00 42.00 L 367.00 42.00 L 366.00 43.00 L 349.00 45.00 L 348.00 46.00 L 339.00 47.00 L 338.00 48.00 L 319.00 52.00 L 312.00 55.00 L 309.00 55.00 L 294.00 60.00 L 291.00 62.00 L 286.00 63.00 L 283.00 65.00 L 268.00 70.00 L 248.00 80.00 L 246.00 80.00 L 218.00 95.00 L 191.00 112.00 L 164.00 132.00 L 151.00 143.00 L 130.00 164.00 L 129.00 164.00 L 116.00 178.00 L 116.00 179.00 L 103.00 193.00 L 80.00 224.00 L 79.00 227.00 L 65.00 248.00 L 59.00 261.00 L 57.00 263.00 L 57.00 265.00 L 51.00 277.00 L 45.00 295.00 L 44.00 302.00 L 43.00 303.00 L 42.00 313.00 L 41.00 314.00 L 41.00 321.00 L 40.00 322.00 L 40.00 345.00 L 41.00 346.00 L 41.00 352.00 L 42.00 353.00 L 44.00 366.00 L 54.00 388.00 L 59.00 395.00 L 74.00 410.00 L 84.00 417.00 L 99.00 425.00 L 101.00 425.00 L 104.00 427.00 L 119.00 432.00 L 123.00 432.00 L 124.00 433.00 L 133.00 434.00 L 134.00 435.00 L 140.00 435.00 L 141.00 436.00 L 149.00 436.00 L 150.00 437.00 L 170.00 437.00 L 171.00 436.00 L 187.00 435.00 L 188.00 434.00 L 202.00 432.00 L 216.00 427.00 L 219.00 427.00 L 222.00 425.00 L 232.00 422.00 L 247.00 414.00 L 249.00 414.00 L 251.00 412.00 L 263.00 406.00 L 283.00 392.00 L 295.00 382.00 L 320.00 357.00 L 339.00 333.00 L 343.00 326.00 L 352.00 314.00 L 353.00 311.00 L 360.00 301.00 L 363.00 294.00 L 365.00 292.00 L 374.00 272.00 L 377.00 263.00 L 378.00 256.00 L 379.00 255.00 L 380.00 243.00 L 381.00 242.00 L 381.00 220.00 L 380.00 219.00 L 379.00 210.00 L 373.00 195.00 L 369.00 189.00 L 357.00 177.00 L 346.00 171.00 L 340.00 170.00 L 339.00 169.00 L 335.00 169.00 L 334.00 168.00 L 314.00 169.00 L 313.00 170.00 L 310.00 170.00 L 304.00 172.00 L 298.00 175.00 L 287.00 185.00 L 284.00 190.00 L 282.00 196.00 L 282.00 210.00 L 285.00 216.00 L 292.00 222.00 L 298.00 223.00 L 299.00 224.00 L 305.00 224.00 L 313.00 221.00 L 318.00 216.00 L 321.00 210.00 L 321.00 199.00 L 320.00 196.00 L 315.00 190.00 L 309.00 187.00 L 302.00 186.00 L 301.00 184.00 L 303.00 182.00 L 307.00 181.00 L 310.00 179.00 L 318.00 178.00 L 319.00 177.00 L 332.00 177.00 L 333.00 178.00 L 337.00 178.00 L 343.00 180.00 L 350.00 184.00 L 360.00 195.00 L 365.00 205.00 L 365.00 208.00 L 367.00 212.00 L 368.00 226.00 L 369.00 227.00 L 368.00 243.00 L 367.00 244.00 L 367.00 248.00 L 366.00 249.00 L 364.00 260.00 L 360.00 272.00 L 343.00 306.00 L 325.00 333.00 L 306.00 356.00 L 286.00 376.00 L 269.00 390.00 L 243.00 407.00 L 241.00 407.00 L 235.00 411.00 L 233.00 411.00 L 214.00 420.00 L 211.00 420.00 L 208.00 422.00 L 205.00 422.00 L 204.00 423.00 L 201.00 423.00 L 192.00 426.00 L 187.00 426.00 L 186.00 427.00 L 169.00 428.00 L 168.00 429.00 L 158.00 429.00 L 157.00 428.00 L 148.00 428.00 L 147.00 427.00 L 142.00 427.00 L 141.00 426.00 L 134.00 425.00 L 128.00 422.00 L 126.00 422.00 L 113.00 415.00 L 98.00 401.00 L 94.00 395.00 L 88.00 382.00 L 87.00 376.00 L 86.00 375.00 L 86.00 371.00 L 85.00 370.00 L 85.00 363.00 L 84.00 362.00 L 84.00 344.00 L 85.00 343.00 L 86.00 328.00 L 87.00 327.00 L 89.00 315.00 L 91.00 311.00 L 91.00 308.00 L 96.00 293.00 L 104.00 276.00 L 104.00 274.00 L 108.00 266.00 L 110.00 264.00 L 114.00 255.00 L 124.00 240.00 L 125.00 237.00 L 143.00 211.00 L 174.00 173.00 L 208.00 139.00 L 209.00 139.00 L 230.00 120.00 L 239.00 114.00 L 247.00 107.00 L 271.00 91.00 L 290.00 81.00 L 292.00 79.00 L 315.00 68.00 L 330.00 63.00 L 333.00 61.00 L 348.00 56.00 L 351.00 56.00 L 352.00 55.00 L 355.00 55.00 L 364.00 52.00 L 373.00 51.00 L 374.00 50.00 L 380.00 50.00 L 381.00 49.00 L 387.00 49.00 L 388.00 48.00 L 409.00 48.00 L 410.00 47.00 L 413.00 47.00 L 414.00 48.00 L 434.00 49.00 L 435.00 50.00 L 444.00 51.00 L 448.00 53.00 L 451.00 53.00 L 457.00 55.00 L 477.00 66.00 L 492.00 82.00 L 500.00 97.00 L 501.00 103.00 L 502.00 104.00 L 502.00 108.00 L 503.00 109.00 L 503.00 113.00 L 504.00 114.00 L 504.00 136.00 L 503.00 137.00 L 503.00 143.00 L 502.00 144.00 L 502.00 148.00 L 501.00 149.00 L 501.00 153.00 L 498.00 161.00 L 498.00 164.00 L 495.00 173.00 L 493.00 176.00 L 493.00 178.00 L 491.00 181.00 L 491.00 183.00 L 488.00 188.00 L 488.00 190.00 L 469.00 226.00 L 424.00 294.00 L 423.00 297.00 L 400.00 332.00 L 396.00 340.00 L 390.00 348.00 L 386.00 356.00 L 382.00 361.00 L 380.00 366.00 L 377.00 369.00 L 372.00 379.00 L 368.00 384.00 L 366.00 389.00 L 358.00 401.00 L 344.00 428.00 L 342.00 430.00 L 332.00 451.00 L 330.00 453.00 L 330.00 455.00 L 324.00 466.00 L 324.00 468.00 L 321.00 473.00 L 321.00 475.00 L 315.00 488.00 L 312.00 497.00 L 309.00 512.00 L 308.00 513.00 L 308.00 518.00 L 307.00 519.00 L 307.00 524.00 L 306.00 525.00 L 306.00 541.00 L 307.00 542.00 L 308.00 549.00 L 312.00 557.00 L 321.00 567.00 L 324.00 568.00 L 326.00 570.00 L 334.00 574.00 L 337.00 574.00 L 342.00 576.00 L 348.00 576.00 L 349.00 577.00 L 369.00 576.00 L 393.00 568.00 L 405.00 562.00 L 407.00 560.00 L 409.00 560.00 L 428.00 548.00 L 431.00 545.00 L 442.00 538.00 L 473.00 512.00 L 515.00 471.00 L 515.00 470.00 L 533.00 451.00 L 544.00 437.00 L 562.00 417.00 L 593.00 379.00 L 595.00 380.00 L 579.00 412.00 L 577.00 414.00 L 567.00 434.00 L 565.00 436.00 L 558.00 450.00 L 549.00 464.00 L 542.00 478.00 L 538.00 483.00 L 536.00 488.00 L 534.00 490.00 L 532.00 495.00 L 530.00 497.00 L 517.00 520.00 L 492.00 558.00 L 489.00 561.00 L 485.00 568.00 L 460.00 602.00 L 441.00 625.00 L 407.00 660.00 L 406.00 660.00 L 393.00 672.00 L 384.00 678.00 L 380.00 682.00 L 361.00 694.00 L 341.00 704.00 L 339.00 704.00 L 336.00 706.00 L 334.00 706.00 L 331.00 708.00 L 322.00 711.00 L 319.00 711.00 L 310.00 714.00 L 306.00 714.00 L 305.00 715.00 L 290.00 716.00 L 289.00 717.00 L 268.00 717.00 L 267.00 716.00 L 260.00 716.00 L 259.00 715.00 L 249.00 714.00 L 231.00 708.00 L 217.00 700.00 L 201.00 685.00 L 195.00 676.00 L 192.00 666.00 L 193.00 665.00 L 205.00 665.00 L 209.00 663.00 L 215.00 657.00 L 219.00 649.00 L 219.00 641.00 L 215.00 633.00 L 207.00 628.00 L 204.00 627.00 L 198.00 627.00 L 191.00 630.00 L 186.00 634.00 L 182.00 640.00 L 181.00 646.00 L 180.00 647.00 L 180.00 662.00 L 181.00 663.00 L 181.00 667.00 L 183.00 673.00 L 188.00 683.00 L 197.00 695.00 L 198.00 695.00 L 199.00 697.00 L 207.00 704.00 L 216.00 710.00 L 230.00 717.00 L 242.00 721.00 L 245.00 721.00 L 246.00 722.00 L 251.00 722.00 L 252.00 723.00 L 257.00 723.00 L 258.00 724.00 L 266.00 724.00 L 267.00 725.00 L 294.00 725.00 L 295.00 724.00 L 311.00 723.00 L 312.00 722.00 L 317.00 722.00 L 318.00 721.00 L 323.00 721.00 L 328.00 719.00 L 332.00 719.00 L 346.00 714.00 L 349.00 714.00 L 355.00 711.00 L 365.00 708.00 L 368.00 706.00 L 370.00 706.00 L 373.00 704.00 L 375.00 704.00 L 384.00 699.00 L 386.00 699.00 L 390.00 696.00 L 405.00 689.00 L 407.00 687.00 L 415.00 683.00 L 440.00 666.00 L 458.00 652.00 L 472.00 639.00 L 480.00 633.00 L 526.00 586.00 L 557.00 548.00 L 559.00 544.00 L 576.00 522.00 L 595.00 494.00 L 596.00 491.00 L 604.00 479.00 L 606.00 474.00 L 611.00 467.00 L 620.00 449.00 L 622.00 447.00 L 629.00 432.00 L 631.00 430.00 L 642.00 407.00 L 644.00 405.00 L 672.00 350.00 L 674.00 348.00 L 690.00 317.00 L 692.00 315.00 L 695.00 308.00 L 697.00 306.00 L 700.00 299.00 L 706.00 290.00 L 714.00 274.00 L 724.00 258.00 L 727.00 251.00 L 732.00 244.00 L 735.00 237.00 L 743.00 225.00 L 745.00 220.00 L 756.00 203.00 L 764.00 188.00 L 781.00 162.00 L 782.00 159.00 L 797.00 137.00 L 818.00 110.00 L 844.00 83.00 L 850.00 79.00 L 855.00 74.00 L 858.00 73.00 L 869.00 65.00 L 886.00 57.00 L 889.00 57.00 L 898.00 54.00 L 906.00 54.00 L 907.00 53.00 L 920.00 54.00 L 938.00 60.00 L 946.00 65.00 L 953.00 71.00 L 956.00 71.00 L 957.00 70.00 Z
M 1260.00 169.00 L 1259.00 168.00 L 1258.00 169.00 L 1255.00 168.00 L 1217.00 168.00 L 1215.00 169.00 L 1214.00 172.00 L 1210.00 177.00 L 1185.00 220.00 L 1181.00 225.00 L 1174.00 238.00 L 1170.00 243.00 L 1152.00 274.00 L 1148.00 279.00 L 1142.00 291.00 L 1138.00 296.00 L 1137.00 299.00 L 1129.00 311.00 L 1127.00 316.00 L 1123.00 321.00 L 1118.00 331.00 L 1114.00 336.00 L 1112.00 341.00 L 1108.00 346.00 L 1107.00 349.00 L 1084.00 386.00 L 1082.00 391.00 L 1069.00 411.00 L 1050.00 435.00 L 1024.00 464.00 L 1018.00 472.00 L 1009.00 481.00 L 1009.00 482.00 L 991.00 500.00 L 983.00 506.00 L 973.00 511.00 L 966.00 511.00 L 963.00 510.00 L 959.00 506.00 L 957.00 502.00 L 957.00 497.00 L 956.00 496.00 L 957.00 488.00 L 964.00 473.00 L 977.00 453.00 L 978.00 450.00 L 982.00 445.00 L 986.00 437.00 L 990.00 432.00 L 991.00 429.00 L 995.00 424.00 L 996.00 421.00 L 1000.00 416.00 L 1016.00 388.00 L 1021.00 373.00 L 1021.00 356.00 L 1016.00 344.00 L 1009.00 336.00 L 997.00 329.00 L 991.00 327.00 L 988.00 327.00 L 987.00 326.00 L 974.00 326.00 L 973.00 327.00 L 969.00 327.00 L 955.00 334.00 L 946.00 341.00 L 925.00 362.00 L 910.00 380.00 L 909.00 380.00 L 908.00 378.00 L 910.00 376.00 L 919.00 359.00 L 930.00 342.00 L 935.00 332.00 L 939.00 327.00 L 947.00 312.00 L 954.00 302.00 L 956.00 297.00 L 960.00 292.00 L 985.00 249.00 L 989.00 244.00 L 990.00 241.00 L 1000.00 226.00 L 1001.00 223.00 L 1018.00 196.00 L 1020.00 191.00 L 1034.00 169.00 L 1025.00 169.00 L 1024.00 168.00 L 1017.00 168.00 L 1016.00 169.00 L 994.00 168.00 L 988.00 170.00 L 984.00 178.00 L 980.00 183.00 L 979.00 186.00 L 977.00 188.00 L 976.00 191.00 L 950.00 233.00 L 949.00 236.00 L 942.00 246.00 L 937.00 256.00 L 930.00 266.00 L 928.00 271.00 L 924.00 276.00 L 923.00 279.00 L 913.00 294.00 L 894.00 327.00 L 890.00 332.00 L 888.00 337.00 L 871.00 364.00 L 869.00 369.00 L 865.00 374.00 L 849.00 402.00 L 843.00 410.00 L 833.00 428.00 L 829.00 433.00 L 819.00 451.00 L 809.00 465.00 L 800.00 474.00 L 782.00 489.00 L 773.00 495.00 L 766.00 498.00 L 764.00 500.00 L 748.00 506.00 L 739.00 507.00 L 738.00 508.00 L 727.00 508.00 L 726.00 507.00 L 719.00 506.00 L 713.00 503.00 L 706.00 496.00 L 702.00 484.00 L 702.00 472.00 L 703.00 471.00 L 704.00 458.00 L 706.00 454.00 L 707.00 448.00 L 711.00 440.00 L 711.00 438.00 L 714.00 435.00 L 729.00 434.00 L 730.00 433.00 L 734.00 433.00 L 735.00 432.00 L 746.00 430.00 L 769.00 421.00 L 771.00 419.00 L 783.00 413.00 L 804.00 398.00 L 815.00 388.00 L 825.00 376.00 L 829.00 368.00 L 831.00 366.00 L 834.00 357.00 L 834.00 344.00 L 831.00 337.00 L 826.00 332.00 L 821.00 329.00 L 815.00 327.00 L 811.00 327.00 L 810.00 326.00 L 794.00 326.00 L 793.00 327.00 L 783.00 328.00 L 765.00 334.00 L 750.00 341.00 L 748.00 343.00 L 746.00 343.00 L 730.00 353.00 L 717.00 363.00 L 697.00 383.00 L 679.00 407.00 L 672.00 419.00 L 672.00 421.00 L 669.00 426.00 L 667.00 432.00 L 667.00 435.00 L 665.00 440.00 L 665.00 444.00 L 664.00 445.00 L 664.00 451.00 L 663.00 452.00 L 663.00 477.00 L 664.00 478.00 L 664.00 482.00 L 666.00 486.00 L 666.00 489.00 L 669.00 495.00 L 677.00 505.00 L 685.00 511.00 L 691.00 514.00 L 703.00 518.00 L 707.00 518.00 L 708.00 519.00 L 733.00 520.00 L 734.00 519.00 L 740.00 519.00 L 741.00 518.00 L 749.00 517.00 L 755.00 514.00 L 760.00 513.00 L 780.00 502.00 L 791.00 494.00 L 792.00 496.00 L 779.00 516.00 L 778.00 520.00 L 822.00 520.00 L 871.00 439.00 L 915.00 385.00 L 937.00 361.00 L 937.00 360.00 L 951.00 346.00 L 967.00 336.00 L 970.00 335.00 L 979.00 335.00 L 981.00 336.00 L 988.00 344.00 L 989.00 351.00 L 988.00 352.00 L 988.00 356.00 L 986.00 362.00 L 981.00 372.00 L 967.00 393.00 L 966.00 396.00 L 946.00 428.00 L 944.00 433.00 L 939.00 440.00 L 928.00 461.00 L 926.00 467.00 L 926.00 471.00 L 925.00 472.00 L 925.00 489.00 L 932.00 503.00 L 941.00 512.00 L 952.00 518.00 L 963.00 519.00 L 964.00 520.00 L 974.00 519.00 L 986.00 514.00 L 997.00 506.00 L 1011.00 492.00 L 1011.00 491.00 L 1032.00 468.00 L 1037.00 461.00 L 1039.00 460.00 L 1040.00 463.00 L 1038.00 467.00 L 1038.00 472.00 L 1037.00 473.00 L 1037.00 478.00 L 1036.00 479.00 L 1036.00 487.00 L 1037.00 488.00 L 1038.00 495.00 L 1043.00 504.00 L 1050.00 511.00 L 1056.00 515.00 L 1066.00 519.00 L 1071.00 519.00 L 1072.00 520.00 L 1087.00 519.00 L 1101.00 512.00 L 1126.00 488.00 L 1149.00 461.00 L 1150.00 461.00 L 1151.00 463.00 L 1148.00 471.00 L 1148.00 478.00 L 1147.00 479.00 L 1148.00 492.00 L 1154.00 504.00 L 1162.00 512.00 L 1171.00 517.00 L 1177.00 519.00 L 1182.00 519.00 L 1183.00 520.00 L 1198.00 519.00 L 1209.00 514.00 L 1223.00 503.00 L 1248.00 477.00 L 1301.00 410.00 L 1301.00 407.00 L 1299.00 405.00 L 1297.00 405.00 L 1293.00 408.00 L 1284.00 421.00 L 1246.00 468.00 L 1239.00 475.00 L 1239.00 476.00 L 1211.00 503.00 L 1205.00 507.00 L 1195.00 511.00 L 1189.00 511.00 L 1185.00 509.00 L 1181.00 505.00 L 1179.00 500.00 L 1179.00 492.00 L 1180.00 491.00 L 1180.00 487.00 L 1182.00 481.00 L 1184.00 479.00 L 1187.00 472.00 L 1202.00 449.00 L 1212.00 431.00 L 1216.00 426.00 L 1229.00 403.00 L 1233.00 398.00 L 1234.00 395.00 L 1248.00 373.00 L 1250.00 368.00 L 1273.00 331.00 L 1275.00 326.00 L 1231.00 326.00 L 1224.00 338.00 L 1220.00 343.00 L 1218.00 348.00 L 1212.00 356.00 L 1210.00 361.00 L 1200.00 376.00 L 1198.00 381.00 L 1194.00 386.00 L 1190.00 394.00 L 1186.00 399.00 L 1185.00 402.00 L 1174.00 419.00 L 1130.00 472.00 L 1101.00 502.00 L 1090.00 509.00 L 1084.00 511.00 L 1078.00 511.00 L 1074.00 509.00 L 1071.00 506.00 L 1069.00 502.00 L 1069.00 488.00 L 1076.00 472.00 L 1080.00 467.00 L 1088.00 452.00 L 1092.00 447.00 L 1114.00 409.00 L 1118.00 404.00 L 1120.00 399.00 L 1129.00 386.00 L 1139.00 368.00 L 1146.00 358.00 L 1148.00 353.00 L 1152.00 348.00 L 1171.00 315.00 L 1175.00 310.00 L 1188.00 287.00 L 1192.00 282.00 L 1205.00 259.00 L 1217.00 241.00 L 1218.00 238.00 L 1220.00 236.00 L 1221.00 233.00 L 1234.00 213.00 L 1239.00 203.00 L 1246.00 193.00 Z
M 823.00 345.00 L 825.00 353.00 L 824.00 354.00 L 824.00 358.00 L 822.00 364.00 L 815.00 376.00 L 800.00 392.00 L 780.00 406.00 L 761.00 416.00 L 751.00 419.00 L 748.00 421.00 L 745.00 421.00 L 733.00 425.00 L 721.00 426.00 L 720.00 427.00 L 718.00 426.00 L 721.00 419.00 L 741.00 391.00 L 760.00 371.00 L 779.00 355.00 L 792.00 346.00 L 805.00 340.00 L 814.00 339.00 L 819.00 341.00 Z"/>
  </g>
  <g id="yehli-sun" fill="#F7D20A" fill-rule="evenodd">
    <path d="M 1311.00 197.00 L 1310.00 198.00 L 1304.00 198.00 L 1298.00 200.00 L 1288.00 206.00 L 1280.00 215.00 L 1275.00 226.00 L 1275.00 229.00 L 1274.00 230.00 L 1274.00 243.00 L 1279.00 256.00 L 1289.00 267.00 L 1300.00 273.00 L 1308.00 274.00 L 1309.00 275.00 L 1316.00 275.00 L 1317.00 274.00 L 1325.00 273.00 L 1333.00 269.00 L 1344.00 259.00 L 1348.00 252.00 L 1350.00 246.00 L 1350.00 243.00 L 1351.00 242.00 L 1351.00 232.00 L 1350.00 231.00 L 1349.00 223.00 L 1342.00 211.00 L 1337.00 206.00 L 1327.00 200.00 L 1321.00 198.00 L 1314.00 198.00 Z
M 1282.00 268.00 L 1281.00 278.00 L 1280.00 279.00 L 1280.00 286.00 L 1279.00 287.00 L 1279.00 292.00 L 1278.00 294.00 L 1281.00 293.00 L 1298.00 279.00 L 1301.00 278.00 L 1303.00 280.00 L 1308.00 295.00 L 1310.00 298.00 L 1311.00 303.00 L 1312.00 303.00 L 1316.00 295.00 L 1318.00 288.00 L 1322.00 281.00 L 1322.00 278.00 L 1320.00 279.00 L 1306.00 279.00 L 1305.00 278.00 L 1301.00 278.00 L 1290.00 273.00 L 1284.00 268.00 Z
M 1256.00 202.00 L 1255.00 203.00 L 1261.00 210.00 L 1271.00 225.00 L 1266.00 228.00 L 1264.00 228.00 L 1246.00 236.00 L 1270.00 246.00 L 1271.00 245.00 L 1270.00 244.00 L 1270.00 228.00 L 1271.00 227.00 L 1271.00 224.00 L 1275.00 215.00 L 1280.00 209.00 L 1281.00 206.00 L 1278.00 205.00 L 1271.00 205.00 L 1270.00 204.00 L 1263.00 204.00 L 1262.00 203.00 L 1257.00 203.00 Z
M 1347.00 179.00 L 1344.00 180.00 L 1325.00 195.00 L 1334.00 199.00 L 1343.00 205.00 L 1344.00 195.00 L 1345.00 194.00 L 1345.00 188.00 L 1346.00 187.00 L 1346.00 181.00 Z
M 1279.00 178.00 L 1280.00 186.00 L 1281.00 187.00 L 1281.00 193.00 L 1282.00 194.00 L 1282.00 200.00 L 1283.00 201.00 L 1283.00 205.00 L 1284.00 205.00 L 1284.00 204.00 L 1289.00 200.00 L 1300.00 195.00 L 1300.00 194.00 L 1283.00 180.00 Z
M 1341.00 268.00 L 1335.00 273.00 L 1327.00 277.00 L 1325.00 277.00 L 1325.00 278.00 L 1342.00 293.00 L 1345.00 294.00 L 1343.00 271.00 Z
M 1371.00 204.00 L 1363.00 204.00 L 1362.00 205.00 L 1354.00 205.00 L 1353.00 206.00 L 1347.00 206.00 L 1344.00 207.00 L 1350.00 215.00 L 1354.00 223.00 L 1354.00 225.00 Z
M 1281.00 265.00 L 1277.00 261.00 L 1272.00 251.00 L 1272.00 249.00 L 1270.00 249.00 L 1260.00 261.00 L 1255.00 269.00 L 1266.00 268.00 L 1267.00 267.00 L 1273.00 267.00 L 1274.00 266.00 L 1281.00 266.00 Z
M 1314.00 169.00 L 1313.00 169.00 L 1311.00 173.00 L 1311.00 175.00 L 1309.00 178.00 L 1309.00 180.00 L 1307.00 183.00 L 1307.00 185.00 L 1303.00 194.00 L 1306.00 194.00 L 1307.00 193.00 L 1319.00 193.00 L 1320.00 194.00 L 1323.00 194.00 L 1321.00 187.00 L 1315.00 174.00 Z
M 1353.00 249.00 L 1353.00 251.00 L 1349.00 259.00 L 1346.00 262.00 L 1344.00 266.00 L 1352.00 267.00 L 1353.00 268.00 L 1358.00 268.00 L 1359.00 269.00 L 1364.00 269.00 L 1365.00 270.00 L 1370.00 270.00 L 1355.00 250.00 Z
M 1354.00 246.00 L 1359.00 245.00 L 1362.00 243.00 L 1370.00 241.00 L 1379.00 237.00 L 1364.00 230.00 L 1355.00 227.00 L 1355.00 244.00 Z"/>
  </g>
  <text id="yehli-tagline" x="586.0" y="592.0" font-family="Arial, Helvetica, sans-serif" font-size="34" font-weight="700" fill="#FFFFFF">L’éducation, une lumière pour changer des vies</text>
</svg>
